<?xml version="1.0" encoding="iso-8859-1"?>
<!-- Generator: Adobe Illustrator 24.3.0, SVG Export Plug-In . SVG Version: 6.00 Build 0)  -->
<svg version="1.1" id="Layer_1" xmlns="http://www.w3.org/2000/svg" xmlns:xlink="http://www.w3.org/1999/xlink" x="0px" y="0px"
	 viewBox="0 0 24 24" style="enable-background:new 0 0 24 24;" xml:space="preserve">
<circle style="opacity:0.35;" cx="12" cy="12" r="10"/>
<path d="M14.812,16.215L7.785,9.188c-0.384-0.384-0.384-1.008,0-1.392l0.011-0.011c0.384-0.384,1.008-0.384,1.392,0l7.027,7.027
	c0.384,0.384,0.384,1.008,0,1.392l-0.011,0.011C15.82,16.599,15.196,16.599,14.812,16.215z"/>
<path d="M7.785,14.812l7.027-7.027c0.384-0.384,1.008-0.384,1.392,0l0.011,0.011c0.384,0.384,0.384,1.008,0,1.392l-7.027,7.027
	c-0.384,0.384-1.008,0.384-1.392,0l-0.011-0.011C7.401,15.82,7.401,15.196,7.785,14.812z"/>
</svg>